<?xml version="1.0" encoding="UTF-8" standalone="no"?>
<!DOCTYPE svg PUBLIC "-//W3C//DTD SVG 1.1//EN" "http://www.w3.org/Graphics/SVG/1.1/DTD/svg11.dtd">
<!-- Created with Vectornator (http://vectornator.io/) -->
<svg height="100%" stroke-miterlimit="10" style="fill-rule:nonzero;clip-rule:evenodd;stroke-linecap:round;stroke-linejoin:round;" version="1.1" viewBox="0 0 191 95" width="100%" xml:space="preserve" xmlns="http://www.w3.org/2000/svg" xmlns:vectornator="http://vectornator.io" xmlns:xlink="http://www.w3.org/1999/xlink">
<defs/>
<g id="Layer-1" vectornator:layerName="Layer 1">
<path d="M15.0579 21.9468C15.0579 13.9623 21.5307 7.48955 29.5152 7.48955L161.485 7.48955C169.469 7.48955 175.942 13.9623 175.942 21.9468L175.942 73.0532C175.942 81.0377 169.469 87.5104 161.485 87.5104L29.5152 87.5104C21.5307 87.5104 15.0579 81.0377 15.0579 73.0532L15.0579 21.9468Z" fill="none" opacity="1" stroke="#111812" stroke-linecap="butt" stroke-linejoin="round" stroke-width="9.70505" vectornator:layerName="Rectangle 1"/>
<path d="M15.0579 50.5L175.942 50.5L175.942 83.5052L15.0579 83.5052L15.0579 50.5Z" fill="#111812" fill-rule="nonzero" opacity="1" stroke="none" vectornator:layerName="Rectangle 2"/>
<path d="M19.6433 19.9219C19.6433 15.1547 23.5079 11.2901 28.2751 11.2901L162.671 11.2901C167.438 11.2901 171.303 15.1547 171.303 19.9219L171.303 40.8682C171.303 45.6354 167.438 49.5 162.671 49.5L28.2751 49.5C23.5079 49.5 19.6433 45.6354 19.6433 40.8682L19.6433 19.9219Z" fill="#66e34e" fill-rule="nonzero" opacity="1" stroke="none" vectornator:layerName="Rectangle 3"/>
<path d="M19.6433 40.6026L171.303 40.6026L171.303 51.5L19.6433 51.5L19.6433 40.6026Z" fill="#66e34e" fill-rule="nonzero" opacity="1" stroke="none" vectornator:layerName="Rectangle 4"/>
<g fill="#ffffff" opacity="1" stroke="none" vectornator:layerName="Text 1">
<path d="M79.254 63.5674L73.4177 63.5674L73.4177 67.6274L78.7811 67.6274L78.7811 70.6494L73.4177 70.6494L73.4177 77.0739L69.6922 77.0739L69.6922 60.5339L79.254 60.5339L79.254 63.5674Z"/>
<path d="M90.7421 77.0739L87.2934 77.0739L87.2934 75.3784L87.2473 75.3784C86.4552 76.701 85.2826 77.3623 83.7293 77.3623C82.5836 77.3623 81.682 77.0374 81.0245 76.3877C80.3671 75.7379 80.0384 74.8709 80.0384 73.7867C80.0384 71.4952 81.3956 70.1726 84.11 69.8189L87.3165 69.3921C87.3165 68.1003 86.6167 67.4544 85.2172 67.4544C83.8101 67.4544 82.4721 67.8735 81.2033 68.7116L81.2033 65.9665C81.7108 65.705 82.4048 65.4744 83.2853 65.2744C84.1657 65.0745 84.9673 64.9745 85.6901 64.9745C89.0581 64.9745 90.7421 66.6547 90.7421 70.015L90.7421 77.0739ZM87.3165 72.2757L87.3165 71.4798L85.1711 71.7567C83.9869 71.9105 83.3948 72.4449 83.3948 73.3599C83.3948 73.7751 83.539 74.1154 83.8274 74.3807C84.1157 74.646 84.506 74.7786 84.9981 74.7786C85.6825 74.7786 86.2399 74.5422 86.6706 74.0693C87.1012 73.5964 87.3165 72.9985 87.3165 72.2757Z"/>
<path d="M101.331 68.5501C100.892 68.3118 100.381 68.1926 99.7965 68.1926C99.0045 68.1926 98.3855 68.4829 97.9395 69.0634C97.4935 69.644 97.2705 70.4341 97.2705 71.4337L97.2705 77.0739L93.6257 77.0739L93.6257 65.2629L97.2705 65.2629L97.2705 67.4544L97.3166 67.4544C97.8934 65.855 98.9314 65.0553 100.431 65.0553C100.815 65.0553 101.115 65.1014 101.331 65.1937L101.331 68.5501Z"/>
<path d="M121.85 77.0739L118.217 77.0739L118.217 70.338C118.217 68.6232 117.586 67.7658 116.325 67.7658C115.725 67.7658 115.237 68.0234 114.86 68.5386C114.483 69.0538 114.295 69.6959 114.295 70.4648L114.295 77.0739L110.65 77.0739L110.65 70.2687C110.65 68.6001 110.031 67.7658 108.793 67.7658C108.17 67.7658 107.672 68.0119 107.3 68.504C106.927 68.9961 106.74 69.6651 106.74 70.511L106.74 77.0739L103.095 77.0739L103.095 65.2629L106.74 65.2629L106.74 67.1084L106.786 67.1084C107.163 66.4778 107.692 65.9646 108.372 65.5685C109.053 65.1725 109.797 64.9745 110.604 64.9745C112.273 64.9745 113.415 65.7089 114.03 67.1776C114.929 65.7089 116.252 64.9745 117.998 64.9745C120.566 64.9745 121.85 66.5586 121.85 69.7266L121.85 77.0739Z"/>
</g>
</g>
</svg>
