<?xml version="1.0" encoding="UTF-8" standalone="no"?>
<!DOCTYPE svg PUBLIC "-//W3C//DTD SVG 1.1//EN" "http://www.w3.org/Graphics/SVG/1.1/DTD/svg11.dtd">
<!-- Created with Vectornator (http://vectornator.io/) -->
<svg height="100%" stroke-miterlimit="10" style="fill-rule:nonzero;clip-rule:evenodd;stroke-linecap:round;stroke-linejoin:round;" version="1.1" viewBox="0 0 190.994 95" width="100%" xml:space="preserve" xmlns="http://www.w3.org/2000/svg" xmlns:vectornator="http://vectornator.io" xmlns:xlink="http://www.w3.org/1999/xlink">
<defs/>
<g id="Layer-1" vectornator:layerName="Layer 1">
<path d="M15.0579 21.9468C15.0579 13.9623 21.5307 7.48955 29.5152 7.48955L161.485 7.48955C169.469 7.48955 175.942 13.9623 175.942 21.9468L175.942 73.0532C175.942 81.0377 169.469 87.5104 161.485 87.5104L29.5152 87.5104C21.5307 87.5104 15.0579 81.0377 15.0579 73.0532L15.0579 21.9468Z" fill="none" opacity="1" stroke="#110b0b" stroke-linecap="butt" stroke-linejoin="round" stroke-width="9.70505" vectornator:layerName="Rectangle 1"/>
<path d="M15.0579 50.5L175.942 50.5L175.942 83.5052L15.0579 83.5052L15.0579 50.5Z" fill="#110b0b" fill-rule="nonzero" opacity="1" stroke="none" vectornator:layerName="Rectangle 2"/>
<path d="M19.6433 19.9219C19.6433 15.1547 23.5079 11.2901 28.2751 11.2901L162.671 11.2901C167.438 11.2901 171.303 15.1547 171.303 19.9219L171.303 40.8682C171.303 45.6354 167.438 49.5 162.671 49.5L28.2751 49.5C23.5079 49.5 19.6433 45.6354 19.6433 40.8682L19.6433 19.9219Z" fill="#e34e4f" fill-rule="nonzero" opacity="1" stroke="none" vectornator:layerName="Rectangle 3"/>
<path d="M19.6433 40.6026L171.303 40.6026L171.303 51.5L19.6433 51.5L19.6433 40.6026Z" fill="#e34e4f" fill-rule="nonzero" opacity="1" stroke="none" vectornator:layerName="Rectangle 4"/>
<g fill="#ffffff" opacity="1" stroke="none" vectornator:layerName="Text 1">
<path d="M66.6298 63.5674L60.7935 63.5674L60.7935 67.6274L66.1569 67.6274L66.1569 70.6494L60.7935 70.6494L60.7935 77.0739L57.068 77.0739L57.068 60.5339L66.6298 60.5339L66.6298 63.5674Z"/>
<path d="M76.6992 68.5501C76.2609 68.3118 75.7496 68.1926 75.1652 68.1926C74.3731 68.1926 73.7541 68.4829 73.3082 69.0634C72.8622 69.644 72.6392 70.4341 72.6392 71.4337L72.6392 77.0739L68.9944 77.0739L68.9944 65.2629L72.6392 65.2629L72.6392 67.4544L72.6853 67.4544C73.262 65.855 74.3001 65.0553 75.7995 65.0553C76.184 65.0553 76.4839 65.1014 76.6992 65.1937L76.6992 68.5501Z"/>
<path d="M88.914 72.2065L81.2091 72.2065C81.3321 73.9212 82.4125 74.7786 84.4502 74.7786C85.7497 74.7786 86.8916 74.471 87.8759 73.8559L87.8759 76.4857C86.784 77.0701 85.3653 77.3623 83.6197 77.3623C81.7128 77.3623 80.2325 76.8336 79.1791 75.7763C78.1256 74.719 77.5989 73.2446 77.5989 71.353C77.5989 69.3921 78.1679 67.8389 79.306 66.6931C80.444 65.5474 81.8435 64.9745 83.5044 64.9745C85.2269 64.9745 86.5591 65.4859 87.501 66.5086C88.443 67.5313 88.914 68.9192 88.914 70.6724L88.914 72.2065ZM85.5344 69.9689C85.5344 68.2772 84.8501 67.4313 83.4813 67.4313C82.8969 67.4313 82.3914 67.6735 81.9646 68.158C81.5378 68.6424 81.2783 69.246 81.186 69.9689L85.5344 69.9689Z"/>
<path d="M101.694 72.2065L93.989 72.2065C94.112 73.9212 95.1924 74.7786 97.2301 74.7786C98.5297 74.7786 99.6715 74.471 100.656 73.8559L100.656 76.4857C99.5639 77.0701 98.1452 77.3623 96.3997 77.3623C94.4927 77.3623 93.0125 76.8336 91.959 75.7763C90.9055 74.719 90.3788 73.2446 90.3788 71.353C90.3788 69.3921 90.9478 67.8389 92.0859 66.6931C93.2239 65.5474 94.6234 64.9745 96.2843 64.9745C98.0068 64.9745 99.339 65.4859 100.281 66.5086C101.223 67.5313 101.694 68.9192 101.694 70.6724L101.694 72.2065ZM98.3144 69.9689C98.3144 68.2772 97.63 67.4313 96.2613 67.4313C95.6769 67.4313 95.1713 67.6735 94.7445 68.158C94.3177 68.6424 94.0582 69.246 93.9659 69.9689L98.3144 69.9689Z"/>
<path d="M113.217 77.0739L102.617 77.0739L102.617 75.563L108.545 67.9504L103.205 67.9504L103.205 65.2629L113.17 65.2629L113.17 67.0622L107.553 74.3865L113.217 74.3865L113.217 77.0739Z"/>
<path d="M125.789 72.2065L118.084 72.2065C118.207 73.9212 119.287 74.7786 121.325 74.7786C122.625 74.7786 123.767 74.471 124.751 73.8559L124.751 76.4857C123.659 77.0701 122.24 77.3623 120.495 77.3623C118.588 77.3623 117.107 76.8336 116.054 75.7763C115.001 74.719 114.474 73.2446 114.474 71.353C114.474 69.3921 115.043 67.8389 116.181 66.6931C117.319 65.5474 118.718 64.9745 120.379 64.9745C122.102 64.9745 123.434 65.4859 124.376 66.5086C125.318 67.5313 125.789 68.9192 125.789 70.6724L125.789 72.2065ZM122.409 69.9689C122.409 68.2772 121.725 67.4313 120.356 67.4313C119.772 67.4313 119.266 67.6735 118.84 68.158C118.413 68.6424 118.153 69.246 118.061 69.9689L122.409 69.9689Z"/>
<path d="M135.662 68.5501C135.224 68.3118 134.713 68.1926 134.128 68.1926C133.336 68.1926 132.717 68.4829 132.271 69.0634C131.825 69.644 131.602 70.4341 131.602 71.4337L131.602 77.0739L127.957 77.0739L127.957 65.2629L131.602 65.2629L131.602 67.4544L131.648 67.4544C132.225 65.855 133.263 65.0553 134.762 65.0553C135.147 65.0553 135.447 65.1014 135.662 65.1937L135.662 68.5501Z"/>
</g>
</g>
</svg>
