<svg xmlns="http://www.w3.org/2000/svg"><g><path d="" stroke="none" stroke-width="0" fill="hsl(131, 17.45%, 8.01%)"/><path d="M15.06 21.95 C15.06 21.95, 5.220000000000002 19.453333333333333, -14.46 14.46 M15.06 21.95 C15.06 21.95, 5.220000000000002 19.453333333333333, -14.46 14.46 M15.06 21.95 C15.06 21.95, 5.220000000000002 19.453333333333333, -14.46 14.46 M15.06 21.95 C15.06 21.95, 5.220000000000002 19.453333333333333, -14.46 14.46 M161.48 7.49 C161.48 7.49, 102.83333333333334 0.17333333333333378, -14.46 -14.46 M161.48 7.49 C161.48 7.49, 102.83333333333334 0.17333333333333378, -14.46 -14.46 M161.48 7.49 C161.48 7.49, 102.83333333333334 0.17333333333333378, -14.46 -14.46 M161.48 7.49 C161.48 7.49, 102.83333333333334 0.17333333333333378, -14.46 -14.46 M175.94 73.05 C175.94 73.05, 122.11333333333332 43.879999999999995, 14.46 -14.46 M175.94 73.05 C175.94 73.05, 122.11333333333332 43.879999999999995, 14.46 -14.46 M175.94 73.05 C175.94 73.05, 122.11333333333332 43.879999999999995, 14.46 -14.46 M175.94 73.05 C175.94 73.05, 122.11333333333332 43.879999999999995, 14.46 -14.46 M29.52 87.51 C29.52 87.51, 24.5 63.16000000000001, 14.46 14.46 M29.52 87.51 C29.52 87.51, 24.5 63.16000000000001, 14.46 14.46 M29.52 87.51 C29.52 87.51, 24.5 63.16000000000001, 14.46 14.46 M29.52 87.51 C29.52 87.51, 24.5 63.16000000000001, 14.46 14.46" stroke="#000" stroke-width="1" fill="none"/></g><g><path d="" stroke="none" stroke-width="0" fill="hsl(110, 72.68%, 59.80%)"/><path d="" stroke="#000" stroke-width="1" fill="none"/></g><g><path d="" stroke="none" stroke-width="0" fill="hsl(110, 72.68%, 59.80%)"/><path d="M19.64 22.22 C19.64 22.22, 9.783333333333335 18.123333333333335, -9.93 9.93 M19.64 22.22 C19.64 22.22, 9.783333333333335 18.123333333333335, -9.93 9.93 M19.64 22.22 C19.64 22.22, 9.783333333333335 18.123333333333335, -9.93 9.93 M19.64 22.22 C19.64 22.22, 9.783333333333335 18.123333333333335, -9.93 9.93 M161.37 12.29 C161.37 12.29, 104.27000000000001 4.883333333333333, -9.93 -9.93 M161.37 12.29 C161.37 12.29, 104.27000000000001 4.883333333333333, -9.93 -9.93 M161.37 12.29 C161.37 12.29, 104.27000000000001 4.883333333333333, -9.93 -9.93 M161.37 12.29 C161.37 12.29, 104.27000000000001 4.883333333333333, -9.93 -9.93 M171.3 40.57 C171.3 40.57, 117.50999999999999 23.736666666666665, 9.93 -9.93 M171.3 40.57 C171.3 40.57, 117.50999999999999 23.736666666666665, 9.93 -9.93 M171.3 40.57 C171.3 40.57, 117.50999999999999 23.736666666666665, 9.93 -9.93 M171.3 40.57 C171.3 40.57, 117.50999999999999 23.736666666666665, 9.93 -9.93 M29.57 50.5 C29.57 50.5, 23.023333333333333 36.97666666666667, 9.93 9.93 M29.57 50.5 C29.57 50.5, 23.023333333333333 36.97666666666667, 9.93 9.93 M29.57 50.5 C29.57 50.5, 23.023333333333333 36.97666666666667, 9.93 9.93 M29.57 50.5 C29.57 50.5, 23.023333333333333 36.97666666666667, 9.93 9.93" stroke="#000" stroke-width="1" fill="none"/></g><g><path d="" stroke="none" stroke-width="0" fill="hsl(0, 0.00%, 0.00%)"/><path d="" stroke="#000" stroke-width="1" fill="none"/></g><text x="25.486838501226146" y="52.0739374426348" style="font-family: SegoeUI-Bold; font-size: 23.622089770020075; fill: hsl(32.41, 0.00%, 100.00%)">Hotdog Bun</text></svg>