<?xml version="1.0" encoding="UTF-8" standalone="no"?>
<!DOCTYPE svg PUBLIC "-//W3C//DTD SVG 1.1//EN" "http://www.w3.org/Graphics/SVG/1.1/DTD/svg11.dtd">
<!-- Created with Vectornator (http://vectornator.io/) -->
<svg height="100%" stroke-miterlimit="10" style="fill-rule:nonzero;clip-rule:evenodd;stroke-linecap:round;stroke-linejoin:round;" version="1.1" viewBox="0 0 190.994 95" width="100%" xml:space="preserve" xmlns="http://www.w3.org/2000/svg" xmlns:vectornator="http://vectornator.io" xmlns:xlink="http://www.w3.org/1999/xlink">
<defs/>
<clipPath id="ArtboardFrame">
<rect height="95" width="190.994" x="0" y="0"/>
</clipPath>
<g clip-path="url(#ArtboardFrame)" id="Layer-1" vectornator:layerName="Layer 1">
<path d="M15.0579 21.9468C15.0579 13.9623 21.5307 7.48955 29.5152 7.48955L161.485 7.48955C169.469 7.48955 175.942 13.9623 175.942 21.9468L175.942 73.0532C175.942 81.0377 169.469 87.5104 161.485 87.5104L29.5152 87.5104C21.5307 87.5104 15.0579 81.0377 15.0579 73.0532L15.0579 21.9468Z" fill="none" opacity="1" stroke="#111812" stroke-linecap="butt" stroke-linejoin="round" stroke-width="9.70505" vectornator:layerName="Rectangle 1"/>
<path d="M15.0579 50.5L175.942 50.5L175.942 83.5052L15.0579 83.5052L15.0579 50.5Z" fill="#111812" fill-rule="nonzero" opacity="1" stroke="none" vectornator:layerName="Rectangle 2"/>
<path d="M19.6433 19.9219C19.6433 15.1547 23.5079 11.2901 28.2751 11.2901L162.671 11.2901C167.438 11.2901 171.303 15.1547 171.303 19.9219L171.303 40.8682C171.303 45.6354 167.438 49.5 162.671 49.5L28.2751 49.5C23.5079 49.5 19.6433 45.6354 19.6433 40.8682L19.6433 19.9219Z" fill="#66e34e" fill-rule="nonzero" opacity="1" stroke="none" vectornator:layerName="Rectangle 3"/>
<path d="M19.6433 40.6026L171.303 40.6026L171.303 51.5L19.6433 51.5L19.6433 40.6026Z" fill="#66e34e" fill-rule="nonzero" opacity="1" stroke="none" vectornator:layerName="Rectangle 4"/>
<g fill="#ffffff" opacity="1" stroke="none" vectornator:layerName="Text 1">
<path d="M70.2963 62.2827L65.2012 62.2827L65.2012 65.8271L69.8835 65.8271L69.8835 68.4653L65.2012 68.4653L65.2012 74.0739L61.9488 74.0739L61.9488 59.6344L70.2963 59.6344L70.2963 62.2827Z"/>
<path d="M79.0869 66.6327C78.7043 66.4246 78.2579 66.3205 77.7477 66.3205C77.0563 66.3205 76.5159 66.5739 76.1265 67.0808C75.7372 67.5876 75.5425 68.2773 75.5425 69.15L75.5425 74.0739L72.3606 74.0739L72.3606 63.7629L75.5425 63.7629L75.5425 65.6761L75.5828 65.6761C76.0862 64.2798 76.9925 63.5816 78.3015 63.5816C78.6371 63.5816 78.8989 63.6219 79.0869 63.7025L79.0869 66.6327Z"/>
<path d="M89.7504 69.8247L83.024 69.8247C83.1314 71.3216 84.0746 72.0701 85.8535 72.0701C86.988 72.0701 87.9849 71.8016 88.8441 71.2646L88.8441 73.5604C87.8909 74.0706 86.6524 74.3257 85.1285 74.3257C83.4637 74.3257 82.1715 73.8642 81.2518 72.9411C80.3322 72.0181 79.8723 70.7309 79.8723 69.0795C79.8723 67.3677 80.3691 66.0117 81.3626 65.0115C82.3561 64.0113 83.5779 63.5112 85.0278 63.5112C86.5315 63.5112 87.6946 63.9576 88.5169 64.8504C89.3392 65.7432 89.7504 66.9549 89.7504 68.4854L89.7504 69.8247ZM86.8001 67.8712C86.8001 66.3944 86.2026 65.6559 85.0077 65.6559C84.4975 65.6559 84.0561 65.8674 83.6836 66.2903C83.311 66.7132 83.0845 67.2402 83.0039 67.8712L86.8001 67.8712Z"/>
<path d="M100.907 69.8247L94.1809 69.8247C94.2883 71.3216 95.2315 72.0701 97.0104 72.0701C98.1449 72.0701 99.1418 71.8016 100.001 71.2646L100.001 73.5604C99.0478 74.0706 97.8092 74.3257 96.2854 74.3257C94.6206 74.3257 93.3284 73.8642 92.4087 72.9411C91.489 72.0181 91.0292 70.7309 91.0292 69.0795C91.0292 67.3677 91.526 66.0117 92.5195 65.0115C93.513 64.0113 94.7347 63.5112 96.1847 63.5112C97.6884 63.5112 98.8514 63.9576 99.6738 64.8504C100.496 65.7432 100.907 66.9549 100.907 68.4854L100.907 69.8247ZM97.9569 67.8712C97.9569 66.3944 97.3595 65.6559 96.1646 65.6559C95.6544 65.6559 95.213 65.8674 94.8405 66.2903C94.4679 66.7132 94.2413 67.2402 94.1608 67.8712L97.9569 67.8712Z"/>
<path d="M110.967 74.0739L101.713 74.0739L101.713 72.7548L106.888 66.1091L102.226 66.1091L102.226 63.7629L110.926 63.7629L110.926 65.3337L106.023 71.7278L110.967 71.7278L110.967 74.0739Z"/>
<path d="M121.942 69.8247L115.216 69.8247C115.323 71.3216 116.266 72.0701 118.045 72.0701C119.18 72.0701 120.177 71.8016 121.036 71.2646L121.036 73.5604C120.083 74.0706 118.844 74.3257 117.32 74.3257C115.656 74.3257 114.363 73.8642 113.444 72.9411C112.524 72.0181 112.064 70.7309 112.064 69.0795C112.064 67.3677 112.561 66.0117 113.554 65.0115C114.548 64.0113 115.77 63.5112 117.22 63.5112C118.723 63.5112 119.886 63.9576 120.709 64.8504C121.531 65.7432 121.942 66.9549 121.942 68.4854L121.942 69.8247ZM118.992 67.8712C118.992 66.3944 118.394 65.6559 117.2 65.6559C116.689 65.6559 116.248 65.8674 115.875 66.2903C115.503 66.7132 115.276 67.2402 115.196 67.8712L118.992 67.8712Z"/>
<path d="M130.562 66.6327C130.179 66.4246 129.733 66.3205 129.222 66.3205C128.531 66.3205 127.991 66.5739 127.601 67.0808C127.212 67.5876 127.017 68.2773 127.017 69.15L127.017 74.0739L123.835 74.0739L123.835 63.7629L127.017 63.7629L127.017 65.6761L127.057 65.6761C127.561 64.2798 128.467 63.5816 129.776 63.5816C130.112 63.5816 130.374 63.6219 130.562 63.7025L130.562 66.6327Z"/>
</g>
<g fill="#ffffff" opacity="1" stroke="none" vectornator:layerName="Text 2">
<path d="M367.867 99.7299L363.149 99.7299L363.149 113.237L359.412 113.237L359.412 99.7299L354.718 99.7299L354.718 96.6964L367.867 96.6964L367.867 99.7299Z"/>
<path d="M378.224 108.369L370.519 108.369C370.642 110.084 371.723 110.941 373.761 110.941C375.06 110.941 376.202 110.634 377.186 110.018L377.186 112.648C376.094 113.233 374.676 113.525 372.93 113.525C371.023 113.525 369.543 112.996 368.489 111.939C367.436 110.882 366.909 109.407 366.909 107.516C366.909 105.555 367.478 104.001 368.616 102.856C369.754 101.71 371.154 101.137 372.815 101.137C374.537 101.137 375.869 101.648 376.811 102.671C377.753 103.694 378.224 105.082 378.224 106.835L378.224 108.369ZM374.845 106.131C374.845 104.44 374.16 103.594 372.792 103.594C372.207 103.594 371.702 103.836 371.275 104.321C370.848 104.805 370.589 105.409 370.496 106.131L374.845 106.131Z"/>
<path d="M391.8 101.425L387.902 107.146L391.777 113.237L387.579 113.237L385.872 110.053C385.733 109.799 385.568 109.442 385.376 108.98L385.329 108.98C385.214 109.303 385.056 109.649 384.857 110.018L383.138 113.237L378.951 113.237L382.942 107.354L379.193 101.425L383.415 101.425L385.099 104.736C385.322 105.174 385.479 105.543 385.572 105.843L385.618 105.843C385.741 105.482 385.906 105.105 386.114 104.713L387.832 101.425L391.8 101.425Z"/>
<path d="M400.578 113.098C400.039 113.383 399.228 113.525 398.144 113.525C395.576 113.525 394.292 112.191 394.292 109.522L394.292 104.113L392.377 104.113L392.377 101.425L394.292 101.425L394.292 98.8764L397.925 97.8383L397.925 101.425L400.578 101.425L400.578 104.113L397.925 104.113L397.925 108.888C397.925 110.118 398.413 110.734 399.39 110.734C399.774 110.734 400.17 110.622 400.578 110.399L400.578 113.098Z"/>
</g>
</g>
</svg>
