<?xml version="1.0" encoding="UTF-8" standalone="no"?>
<!DOCTYPE svg PUBLIC "-//W3C//DTD SVG 1.1//EN" "http://www.w3.org/Graphics/SVG/1.1/DTD/svg11.dtd">
<!-- Created with Vectornator (http://vectornator.io/) -->
<svg height="100%" stroke-miterlimit="10" style="fill-rule:nonzero;clip-rule:evenodd;stroke-linecap:round;stroke-linejoin:round;" version="1.1" viewBox="0 0 191 95" width="100%" xml:space="preserve" xmlns="http://www.w3.org/2000/svg" xmlns:vectornator="http://vectornator.io" xmlns:xlink="http://www.w3.org/1999/xlink">
<defs/>
<g id="Layer-1" vectornator:layerName="Layer 1">
<path d="M15.0579 21.9468C15.0579 13.9623 21.5307 7.48955 29.5152 7.48955L161.485 7.48955C169.469 7.48955 175.942 13.9623 175.942 21.9468L175.942 73.0532C175.942 81.0377 169.469 87.5104 161.485 87.5104L29.5152 87.5104C21.5307 87.5104 15.0579 81.0377 15.0579 73.0532L15.0579 21.9468Z" fill="none" opacity="1" stroke="#110b0b" stroke-linecap="butt" stroke-linejoin="round" stroke-width="9.70505" vectornator:layerName="Rectangle 1"/>
<path d="M15.0579 50.5L175.942 50.5L175.942 83.5052L15.0579 83.5052L15.0579 50.5Z" fill="#110b0b" fill-rule="nonzero" opacity="1" stroke="none" vectornator:layerName="Rectangle 2"/>
<path d="M19.6433 22.2214C19.6433 16.7365 24.0897 12.2901 29.5746 12.2901L161.371 12.2901C166.856 12.2901 171.303 16.7365 171.303 22.2214L171.303 40.5687C171.303 46.0536 166.856 50.5 161.371 50.5L29.5746 50.5C24.0897 50.5 19.6433 46.0536 19.6433 40.5687L19.6433 22.2214Z" fill="#e34e4f" fill-rule="nonzero" opacity="1" stroke="none" vectornator:layerName="Rectangle 3"/>
<path d="M19.6433 38.6026L171.303 38.6026L171.303 50.5L19.6433 50.5L19.6433 38.6026Z" fill="#e34e4f" fill-rule="nonzero" opacity="1" stroke="none" vectornator:layerName="Rectangle 4"/>
<g fill="#ffffff" opacity="1" stroke="none" vectornator:layerName="Text 1">
<path d="M75.0152 77.0739L75.0152 60.5339L80.8746 60.5339C86.7494 60.5339 89.6868 63.2213 89.6868 68.5963C89.6868 71.1723 88.8851 73.2292 87.2819 74.7671C85.6786 76.305 83.5429 77.0739 80.8746 77.0739L75.0152 77.0739ZM78.7408 63.5674L78.7408 74.052L80.5862 74.052C82.201 74.052 83.4679 73.5675 84.3868 72.5987C85.3057 71.6298 85.7651 70.311 85.7651 68.6424C85.7651 67.0661 85.3095 65.8261 84.3983 64.9226C83.4871 64.0191 82.2087 63.5674 80.5632 63.5674L78.7408 63.5674Z"/>
<path d="M101.901 77.0739L98.4528 77.0739L98.4528 75.3784L98.4066 75.3784C97.6146 76.701 96.442 77.3623 94.8887 77.3623C93.743 77.3623 92.8414 77.0374 92.1839 76.3877C91.5265 75.7379 91.1977 74.8709 91.1977 73.7867C91.1977 71.4952 92.5549 70.1726 95.2693 69.8189L98.4758 69.3921C98.4758 68.1003 97.7761 67.4544 96.3766 67.4544C94.9694 67.4544 93.6315 67.8735 92.3627 68.7116L92.3627 65.9665C92.8702 65.705 93.5642 65.4744 94.4446 65.2744C95.3251 65.0745 96.1267 64.9745 96.8495 64.9745C100.217 64.9745 101.901 66.6547 101.901 70.015L101.901 77.0739ZM98.4758 72.2757L98.4758 71.4798L96.3305 71.7567C95.1463 71.9105 94.5542 72.4449 94.5542 73.3599C94.5542 73.7751 94.6984 74.1154 94.9867 74.3807C95.2751 74.646 95.6653 74.7786 96.1575 74.7786C96.8418 74.7786 97.3993 74.5422 97.8299 74.0693C98.2605 73.5964 98.4758 72.9985 98.4758 72.2757Z"/>
<path d="M116.342 77.0739L112.698 77.0739L112.698 75.4476L112.651 75.4476C111.821 76.7241 110.602 77.3623 108.995 77.3623C107.519 77.3623 106.331 76.8413 105.431 75.7994C104.531 74.7575 104.081 73.3022 104.081 71.4337C104.081 69.4806 104.577 67.9158 105.569 66.7393C106.561 65.5628 107.861 64.9745 109.468 64.9745C110.99 64.9745 112.052 65.5205 112.651 66.6124L112.698 66.6124L112.698 59.5881L116.342 59.5881L116.342 77.0739ZM112.767 71.3299L112.767 70.4418C112.767 69.6728 112.544 69.0346 112.098 68.5271C111.652 68.0196 111.071 67.7658 110.356 67.7658C109.549 67.7658 108.918 68.083 108.464 68.7174C108.011 69.3518 107.784 70.2226 107.784 71.3299C107.784 72.368 108.003 73.1677 108.441 73.729C108.88 74.2903 109.487 74.571 110.264 74.571C111.002 74.571 111.604 74.275 112.069 73.6829C112.534 73.0908 112.767 72.3065 112.767 71.3299Z"/>
</g>
</g>
</svg>
