<?xml version="1.0" encoding="UTF-8" standalone="no"?>
<!DOCTYPE svg PUBLIC "-//W3C//DTD SVG 1.1//EN" "http://www.w3.org/Graphics/SVG/1.1/DTD/svg11.dtd">
<!-- Created with Vectornator (http://vectornator.io/) -->
<svg height="100%" stroke-miterlimit="10" style="fill-rule:nonzero;clip-rule:evenodd;stroke-linecap:round;stroke-linejoin:round;" version="1.1" viewBox="0 0 190.994 95" width="100%" xml:space="preserve" xmlns="http://www.w3.org/2000/svg" xmlns:vectornator="http://vectornator.io" xmlns:xlink="http://www.w3.org/1999/xlink">
<defs/>
<g id="Layer-1" vectornator:layerName="Layer 1">
<path d="M15.0579 21.9468C15.0579 13.9623 21.5307 7.48955 29.5152 7.48955L161.485 7.48955C169.469 7.48955 175.942 13.9623 175.942 21.9468L175.942 73.0532C175.942 81.0377 169.469 87.5104 161.485 87.5104L29.5152 87.5104C21.5307 87.5104 15.0579 81.0377 15.0579 73.0532L15.0579 21.9468Z" fill="#110b0b" fill-rule="nonzero" opacity="1" stroke="#e34e4f" stroke-linecap="butt" stroke-linejoin="round" stroke-width="9.70505" vectornator:layerName="Rectangle 1"/>
<g opacity="1" vectornator:layerName="Lock">
<path d="M133.174 59.6352C132.102 57.716 131.024 56.8407 133.646 55.3758L148.525 47.0619C151.146 45.597 151.938 47.2953 153.01 49.2145L158.233 58.5621C159.306 60.4813 160.253 61.8946 157.631 63.3595L142.752 71.6734C140.131 73.1383 139.47 70.902 138.398 68.9828L133.174 59.6352Z" fill="none" opacity="1" stroke="#ffffff" stroke-linecap="butt" stroke-linejoin="miter" stroke-width="1.69399" vectornator:layerName="Rectangle 5"/>
<path d="M135.946 54.0117C135.946 54.0117 133.09 49.1746 131.808 46.6983C130.764 44.1296 131.729 41.2898 134.529 39.7358C137.863 37.8858 140.727 38.1246 142.615 41.266C144.346 44.147 146.507 48.1894 146.507 48.1894L135.946 54.0117Z" fill="none" opacity="1" stroke="#ffffff" stroke-linecap="butt" stroke-linejoin="miter" stroke-width="1.69399" vectornator:layerName="Curve 1"/>
</g>
<g fill="#ffffff" opacity="1" stroke="none" vectornator:layerName="Text 1">
<path d="M62.5121 47.8541L52.6619 47.8541L52.6619 31.3141L56.3874 31.3141L56.3874 44.8322L62.5121 44.8322L62.5121 47.8541Z"/>
<path d="M71.1397 48.1425C68.7714 48.1425 66.8413 47.3716 65.3495 45.8299C63.8578 44.2881 63.1119 42.2793 63.1119 39.8032C63.1119 37.1888 63.8693 35.0742 65.3841 33.4594C66.899 31.8446 68.9059 31.0372 71.405 31.0372C73.7657 31.0372 75.6746 31.81 77.1317 33.3556C78.5889 34.9012 79.3175 36.9389 79.3175 39.4687C79.3175 42.0678 78.562 44.1632 77.051 45.7549C75.54 47.3466 73.5696 48.1425 71.1397 48.1425ZM71.3012 34.2437C69.994 34.2437 68.9559 34.7339 68.187 35.7144C67.418 36.6948 67.0335 37.9924 67.0335 39.6072C67.0335 41.245 67.418 42.5407 68.187 43.4942C68.9559 44.4477 69.9632 44.9244 71.2089 44.9244C72.4931 44.9244 73.5119 44.4611 74.2655 43.5346C75.0191 42.608 75.3958 41.3219 75.3958 39.6764C75.3958 37.9616 75.0306 36.6275 74.3001 35.674C73.5696 34.7205 72.57 34.2437 71.3012 34.2437Z"/>
<path d="M93.9198 47.2659C92.7126 47.8503 91.1362 48.1425 89.1908 48.1425C86.6533 48.1425 84.6578 47.3966 83.2045 45.9048C81.7512 44.4131 81.0245 42.4254 81.0245 39.9416C81.0245 37.2965 81.8416 35.1511 83.4756 33.5056C85.1096 31.86 87.23 31.0372 89.8367 31.0372C91.4515 31.0372 92.8125 31.241 93.9198 31.6485L93.9198 35.2357C92.8125 34.5744 91.5515 34.2437 90.1366 34.2437C88.5833 34.2437 87.3299 34.732 86.3764 35.7086C85.4229 36.6852 84.9462 38.0077 84.9462 39.6764C84.9462 41.2758 85.396 42.5503 86.2957 43.5C87.1954 44.4496 88.4065 44.9244 89.929 44.9244C91.3823 44.9244 92.7126 44.5707 93.9198 43.8633L93.9198 47.2659Z"/>
<path d="M110.552 47.8541L105.846 47.8541L101.025 40.6683C100.933 40.5299 100.787 40.2262 100.587 39.7571L100.529 39.7571L100.529 47.8541L96.8034 47.8541L96.8034 31.3141L100.529 31.3141L100.529 39.1343L100.587 39.1343C100.679 38.9189 100.833 38.6114 101.048 38.2115L105.616 31.3141L110.056 31.3141L104.289 39.2035L110.552 47.8541Z"/>
<path d="M122.052 47.8541L112.132 47.8541L112.132 31.3141L121.671 31.3141L121.671 34.3476L115.858 34.3476L115.858 38.027L121.267 38.027L121.267 41.0489L115.858 41.0489L115.858 44.8322L122.052 44.8322L122.052 47.8541Z"/>
<path d="M124.705 47.8541L124.705 31.3141L130.564 31.3141C136.439 31.3141 139.376 34.0015 139.376 39.3765C139.376 41.9524 138.575 44.0094 136.971 45.5473C135.368 47.0852 133.232 47.8541 130.564 47.8541L124.705 47.8541ZM128.43 34.3476L128.43 44.8322L130.276 44.8322C131.89 44.8322 133.157 44.3477 134.076 43.3788C134.995 42.41 135.455 41.0912 135.455 39.4226C135.455 37.8463 134.999 36.6063 134.088 35.7028C133.177 34.7993 131.898 34.3476 130.253 34.3476L128.43 34.3476Z"/>
</g>
</g>
</svg>
